<?xml version="1.0" standalone="no"?>
<!DOCTYPE svg PUBLIC "-//W3C//DTD SVG 20010904//EN"
 "http://www.w3.org/TR/2001/REC-SVG-20010904/DTD/svg10.dtd">
<svg version="1.0" xmlns="http://www.w3.org/2000/svg"
 width="589.000000pt" height="311.000000pt" viewBox="0 0 589.000000 311.000000"
 preserveAspectRatio="xMidYMid meet">
<metadata>
Created by potrace 1.16, written by Peter Selinger 2001-2019
</metadata>
<g transform="translate(0.000000,311.000000) scale(0.100000,-0.100000)"
fill="#000000" stroke="none">
<path d="M4412 2961 c-101 -35 -165 -112 -197 -238 -14 -54 -15 -134 -12 -605
3 -488 5 -548 21 -596 25 -74 72 -132 136 -167 52 -28 61 -30 170 -30 101 0
121 3 164 24 85 42 138 112 167 223 16 59 24 951 10 1077 -12 111 -49 199
-106 254 -73 71 -238 98 -353 58z m225 -149 c17 -12 42 -43 55 -70 l23 -47 3
-505 c4 -575 1 -614 -54 -678 -26 -30 -45 -43 -79 -50 -95 -20 -168 15 -206
100 l-24 53 0 530 c0 484 2 534 18 581 19 55 34 73 82 99 43 23 141 16 182
-13z"/>
<path d="M5256 2956 c-117 -50 -179 -149 -197 -316 -12 -121 -11 -912 2 -1006
15 -113 44 -181 98 -236 63 -63 129 -82 263 -76 76 4 103 2 119 -10 11 -8 17
-18 12 -22 -7 -7 -392 -190 -567 -269 -60 -27 -966 -265 -1046 -275 -14 -2
-58 -14 -98 -27 -72 -23 -73 -23 -105 -4 -66 39 -159 19 -251 -54 l-39 -31
-182 0 -183 0 -46 68 c-25 37 -46 72 -46 79 0 27 -24 62 -51 74 -16 6 -29 14
-29 17 0 3 21 25 48 49 l47 43 -104 0 -104 0 48 -43 48 -44 -21 -21 c-28 -28
-29 -68 -2 -77 22 -7 28 -44 8 -46 -7 -1 2 -4 20 -8 30 -5 38 -15 73 -81 21
-41 35 -78 31 -81 -4 -4 -64 -10 -133 -13 -146 -8 -126 -18 -218 113 -69 100
-125 160 -183 199 -83 55 -207 18 -413 -123 -55 -38 -108 -68 -117 -67 -57 3
-588 177 -883 289 -254 96 -363 152 -642 330 l-133 85 0 384 0 384 180 0 180
0 0 -400 0 -400 75 0 75 0 0 810 0 810 -75 0 -75 0 0 -340 0 -340 -180 0 -180
0 0 340 0 340 -75 0 -75 0 0 -810 0 -810 43 0 c40 0 70 -18 373 -222 181 -121
416 -284 523 -361 107 -77 244 -171 305 -209 431 -268 907 -418 1322 -418 305
0 573 49 817 150 156 64 950 433 1572 730 72 34 216 103 320 152 105 50 192
92 196 93 3 2 36 -20 74 -49 l68 -54 44 51 c24 28 43 53 43 57 0 3 -42 38 -94
78 l-95 73 24 35 c13 19 32 58 42 87 17 48 18 97 18 612 0 633 0 628 -76 725
-58 74 -125 103 -244 107 -78 3 -98 0 -149 -21z m217 -132 c43 -21 77 -71 93
-142 21 -88 20 -995 -1 -1077 -27 -104 -77 -148 -170 -148 -92 0 -153 53 -174
154 -7 32 -11 230 -11 548 0 533 2 563 52 626 42 53 142 72 211 39z m-1203
-2050 c-261 -86 -286 -93 -297 -77 -7 9 -13 19 -13 23 0 6 555 148 580 148 8
0 -113 -42 -270 -94z m310 67 c-8 -4 -136 -61 -284 -126 -256 -113 -269 -118
-282 -100 -8 11 -13 23 -11 28 2 6 131 54 287 108 268 92 326 110 290 90z
m-2159 -179 c48 -75 62 -102 55 -109 -5 -6 -295 22 -351 34 -27 6 -19 12 100
69 72 35 137 64 145 64 8 0 31 -26 51 -58z"/>
<path d="M1205 2938 c-5 -25 -265 -1584 -265 -1593 0 -3 35 -5 77 -3 l78 3 41
265 40 265 141 3 141 3 11 -68 c6 -38 26 -158 44 -268 l33 -200 80 -3 80 -3
-96 558 c-54 307 -117 672 -140 811 l-43 252 -108 0 c-104 0 -109 -1 -114 -22z
m130 -243 c18 -137 93 -619 100 -652 5 -23 5 -23 -115 -23 -66 0 -120 2 -120
4 0 2 18 122 39 267 22 145 47 324 57 397 9 73 18 131 20 130 1 -2 10 -57 19
-123z"/>
<path d="M1860 2150 l0 -810 71 0 72 0 -5 738 -4 737 53 -325 c54 -332 179
-1073 189 -1122 5 -28 7 -28 79 -28 62 0 75 3 79 18 8 26 159 870 211 1177 25
149 47 275 49 280 1 6 1 -324 -2 -732 l-5 -743 77 0 76 0 0 810 0 810 -112 0
-113 0 -74 -373 c-113 -573 -148 -754 -162 -855 -7 -51 -16 -87 -20 -80 -3 7
-12 56 -19 108 -12 92 -65 392 -166 937 l-49 263 -112 0 -113 0 0 -810z"/>
<path d="M3050 2150 l0 -810 72 0 71 0 -7 713 c-3 391 -9 726 -11 742 -4 25
-4 26 4 10 5 -11 26 -123 46 -250 35 -223 190 -1147 200 -1192 5 -21 11 -23
80 -23 41 0 75 2 75 4 0 2 31 174 69 382 39 209 97 538 131 733 33 195 61 356
63 357 1 1 0 -330 -2 -737 l-3 -739 76 0 76 0 0 810 0 810 -114 0 -113 0 -91
-457 c-50 -252 -105 -543 -123 -648 -30 -177 -49 -246 -49 -182 0 51 -203
1191 -226 1270 -5 15 -19 17 -115 17 l-109 0 0 -810z"/>
</g>
</svg>
